<svg width="22" height="22" viewBox="0 0 22 22" fill="none" xmlns="http://www.w3.org/2000/svg">
<path d="M9.16895 12.8066C9.16895 13.749 8.48535 14.0469 7.64551 14.0469H5.44336V11.4639H7.68945C8.59766 11.4688 9.16895 11.8447 9.16895 12.8066ZM8.79297 8.78809C8.79297 7.92383 8.12402 7.71875 7.38184 7.71875H5.44824V9.90625H7.5332C8.27051 9.90625 8.79297 9.58398 8.79297 8.78809ZM15.2529 9.9209C14.3594 9.9209 13.7637 10.4775 13.7051 11.3711H16.7422C16.6592 10.4678 16.1904 9.9209 15.2529 9.9209ZM21.9375 2.40625V19.5938C21.9375 20.8877 20.8877 21.9375 19.5938 21.9375H2.40625C1.1123 21.9375 0.0625 20.8877 0.0625 19.5938V2.40625C0.0625 1.1123 1.1123 0.0625 2.40625 0.0625H19.5938C20.8877 0.0625 21.9375 1.1123 21.9375 2.40625ZM13.3291 7.5332H17.1279V6.61035H13.3291V7.5332ZM11.2295 12.9189C11.2295 11.7422 10.6729 10.7266 9.52051 10.3994C10.3604 9.99902 10.7998 9.53516 10.7998 8.59277C10.7998 6.72754 9.4082 6.27344 7.80176 6.27344H3.38281V15.6484H7.92871C9.63281 15.6387 11.2295 14.8232 11.2295 12.9189ZM18.6172 12.1963C18.6172 10.1895 17.4404 8.51465 15.3164 8.51465C13.2461 8.51465 11.8447 10.0674 11.8447 12.1084C11.8447 14.2227 13.1777 15.6729 15.3164 15.6729C16.9375 15.6729 17.9873 14.9453 18.4951 13.3877H16.8496C16.6689 13.9688 15.9414 14.2715 15.375 14.2715C14.2812 14.2715 13.71 13.6318 13.71 12.5479H18.6025C18.6074 12.4355 18.6172 12.3135 18.6172 12.1963Z" fill="#DF124C"/>
</svg>
