<svg width="26" height="26" viewBox="0 0 26 26" fill="none" xmlns="http://www.w3.org/2000/svg">
<path fill-rule="evenodd" clip-rule="evenodd" d="M3.06006 0.0599976C1.4032 0.0599976 0.0600586 1.40314 0.0600586 3.06V22.94C0.0600586 24.5969 1.4032 25.94 3.06006 25.94H22.9401C24.5969 25.94 25.9401 24.5969 25.9401 22.94V3.06C25.9401 1.40314 24.5969 0.0599976 22.9401 0.0599976H3.06006ZM12.9324 6.98622C12.2838 7.05476 11.5675 7.22191 10.7433 7.49662L10.5512 6.90919C10.5512 6.90919 11.6367 6.3766 12.9998 6.18829L12.8876 5.80318C12.4891 5.71871 12.19 5.36492 12.19 4.94124C12.19 4.4546 12.5846 4.06 13.0713 4.06C13.558 4.06 13.9526 4.45456 13.9526 4.94124C13.9526 5.36504 13.6534 5.71879 13.2548 5.80322L13.3556 6.14935C14.6395 6.04437 15.6172 6.34487 15.6172 6.34487L15.517 6.98085C15.1629 6.92321 14.8541 6.88768 14.4363 6.88768C14.0458 6.88768 13.5679 6.91892 12.9324 6.98622ZM6.96987 9.98306C6.93883 10.0208 6.9075 10.0595 6.87566 10.1001L6.87093 10.1064C6.84778 10.138 6.2986 10.896 5.85914 12.104C5.6317 12.7295 5.56697 13.5158 5.54906 13.9657L4.66765 13.9306C4.66765 13.9306 4.56279 12.6957 4.92718 11.7028L4.92878 11.6986C4.91953 11.5889 4.88853 11.4434 4.79588 11.342C4.7144 11.2527 4.59519 11.2105 4.43136 11.2132C4.11231 11.2189 3.89396 11.0859 3.75648 10.9331C3.71218 10.9444 3.66604 10.9511 3.61821 10.9511C3.30993 10.9511 3.06006 10.7012 3.06006 10.3929C3.06006 10.0847 3.30993 9.83477 3.61821 9.83477C3.92644 9.83477 4.17636 10.0847 4.17636 10.3929C4.17636 10.523 4.13149 10.6424 4.05695 10.7372C4.13258 10.804 4.24622 10.8608 4.41405 10.8608L4.42587 10.8607C4.69433 10.8562 4.90651 10.9392 5.05801 11.1063C5.08661 11.1378 5.11148 11.1712 5.13343 11.2056C5.58473 10.2333 6.1431 9.66023 6.27449 9.52538L6.2745 9.52536L6.27454 9.52533C6.29025 9.5092 6.29984 9.49935 6.30241 9.49585L6.70994 9.79387L6.96987 9.98306ZM22.1117 7.62557C21.8035 7.62557 21.5536 7.87541 21.5536 8.18372C21.5536 8.23163 21.5603 8.27789 21.5716 8.32224C21.4192 8.45979 21.2865 8.6781 21.2915 8.99679C21.294 9.16058 21.2519 9.27983 21.1627 9.36135C21.0928 9.42516 21.0021 9.45965 20.9165 9.47803C20.259 8.56009 19.4505 7.9975 19.4505 7.9975L18.8175 8.6765C19.2963 9.11268 19.7843 9.65729 20.2602 10.3376C20.5883 10.8066 20.9258 11.4137 21.2078 12.0175L22.0626 11.6129C22.0626 11.6129 21.6724 10.6485 21.1226 9.78435C21.2184 9.7503 21.3147 9.69939 21.3984 9.62344C21.5655 9.47199 21.6482 9.25928 21.644 8.99131C21.6413 8.81694 21.6992 8.69977 21.7675 8.62242C21.8624 8.69697 21.9817 8.74187 22.1118 8.74187C22.42 8.74187 22.6699 8.49196 22.6699 8.18372C22.6698 7.87541 22.42 7.62557 22.1117 7.62557ZM14.2366 16.9872C16.7828 16.6328 18.7186 15.8762 19.8943 15.3038C20.6022 14.9591 21.1249 14.6405 21.4567 14.4199C21.4988 15.0189 21.4265 15.5858 21.3336 15.9416C21.1593 16.6098 20.8642 17.2536 20.4561 17.8556C19.9309 18.6353 18.8664 19.5094 17.7424 20.0844C16.2247 20.7298 14.6323 21.057 13.0093 21.057C11.3586 21.057 10.2733 20.7057 10.2627 20.7022L10.2445 20.6962L10.2255 20.6932C10.2132 20.6913 8.9893 20.4847 7.78872 19.1699C7.44259 18.791 7.14 18.3544 6.8872 17.8779L6.87302 17.8506C6.85472 17.8156 6.83677 17.7805 6.81903 17.7453C6.80036 17.708 6.78234 17.6707 6.76435 17.6332C6.76238 17.6291 6.76057 17.6251 6.75877 17.621L6.75397 17.6105C6.75351 17.6095 6.7534 17.6085 6.75329 17.6075C6.75319 17.6066 6.75309 17.6057 6.75265 17.6047C6.60601 17.297 6.48195 16.9751 6.37716 16.6429L6.38189 16.6432L6.38473 16.6434V16.6435C6.7853 16.7397 7.51129 16.8785 8.40896 16.9914C9.19551 17.0903 10.2166 17.1785 11.3763 17.1785C12.2672 17.1785 13.237 17.1264 14.2366 16.9872ZM14.1394 16.2921C16.5812 15.9521 18.4357 15.2288 19.5615 14.6832C20.4972 14.2296 21.0981 13.8188 21.331 13.6494C21.0997 12.7918 20.4612 11.4452 19.8751 10.6074C18.2031 8.21704 16.3996 7.60313 15.4734 7.45015C15.1197 7.39167 14.8367 7.35778 14.4362 7.35778C14.0626 7.35778 13.6004 7.38822 12.9817 7.45364C12.3614 7.51929 11.6704 7.6816 10.8691 7.95002C9.74415 8.32683 8.72659 8.91799 7.92634 9.65948L7.89962 9.68435C7.78045 9.79463 7.5329 10.0238 7.24838 10.3865C7.21333 10.4354 6.70925 11.1579 6.30664 12.2647C6.01071 13.0783 6.02354 14.2569 6.02418 14.3155L6.0242 14.3177V14.3211C6.0242 14.6034 6.03446 14.8856 6.06566 15.1654C6.06592 15.1676 6.06421 15.1699 6.0625 15.1721C6.06077 15.1743 6.05905 15.1766 6.05933 15.1788C6.0633 15.2137 6.06426 15.2485 6.06426 15.2832V15.2834C6.08412 15.3811 6.09963 15.4793 6.11508 15.5771L6.11509 15.5771C6.1308 15.6766 6.14645 15.7756 6.16652 15.8733C6.167 15.8734 6.17009 15.8768 6.17057 15.8768H6.17181C6.75556 16.0369 10.2425 16.8345 14.1394 16.2921ZM17.4847 9.83052C18.2877 9.83052 18.9388 10.4816 18.9388 11.2847C18.9388 12.0878 18.2878 12.7387 17.4847 12.7387C16.6816 12.7387 16.0306 12.0877 16.0306 11.2847C16.0306 10.4816 16.6816 9.83052 17.4847 9.83052ZM10.6092 9.77184C11.9071 9.77184 12.9593 10.824 12.9593 12.1219C12.9593 13.4198 11.9071 14.472 10.6092 14.472C9.31134 14.472 8.25913 13.4198 8.25913 12.1219C8.25913 10.824 9.31134 9.77184 10.6092 9.77184ZM6.07572 15.2934C6.10067 15.4828 6.13256 15.6741 6.17225 15.8663C6.13248 15.6741 6.10063 15.4828 6.07572 15.2934Z" fill="#DF124C"/>
</svg>
