<svg width="60" height="61" viewBox="0 0 60 61" fill="none" xmlns="http://www.w3.org/2000/svg">
<path fill-rule="evenodd" clip-rule="evenodd" d="M45.967 18.8199C46.6821 19.535 46.6821 20.69 45.967 21.4051L42.6118 24.7603L35.7364 17.8849L39.0916 14.5297C39.6233 13.998 40.815 13.6679 41.6768 14.5297L45.967 18.8199ZM40.65 26.7221L37.7715 29.6006L45.3436 37.1727C46.7737 38.6028 46.7737 40.9313 45.3436 42.3613L41.8601 45.8449C40.76 46.945 38.4132 47.5867 36.6714 45.8449L29.0993 38.2728L20.3721 47H13.4967V40.1245L22.2056 31.3973L14.6334 23.8252C13.2034 22.3951 13.2034 20.0667 14.6334 18.6366L18.117 15.153C19.5471 13.7229 21.8755 13.7229 23.3056 15.153L30.8961 22.7252L33.7746 19.8466L40.65 26.7221ZM17.2369 21.2217L24.8274 28.7939L28.2926 25.3103L25.6341 22.6518L23.4523 24.8336L20.8672 22.2485L23.0306 20.0667L20.7021 17.7382L17.2369 21.2217ZM31.7028 35.6876L39.2749 43.2597L42.7585 39.7762L40.43 37.4477L38.2482 39.6295L35.663 37.0444L37.8449 34.8626L35.1864 32.2041L31.7028 35.6876Z" fill="#DF124C"/>
</svg>
