<svg width="22" height="22" viewBox="0 0 22 22" fill="none" xmlns="http://www.w3.org/2000/svg">
<path d="M13.3486 8.4707V11.9424C13.3486 12.0303 13.2803 12.0986 13.1924 12.0986H12.6358C12.582 12.0986 12.5332 12.0693 12.5088 12.0352L10.917 9.88671V11.9473C10.917 12.0352 10.8486 12.1035 10.7608 12.1035H10.2041C10.1162 12.1035 10.0479 12.0352 10.0479 11.9473V8.47558C10.0479 8.38769 10.1162 8.31933 10.2041 8.31933H10.7559C10.8047 8.31933 10.8584 8.34375 10.8828 8.38769L12.4746 10.5361V8.47558C12.4746 8.38769 12.543 8.31933 12.6309 8.31933H13.1875C13.2754 8.31445 13.3486 8.38769 13.3486 8.4707ZM9.34474 8.31445H8.7881C8.70021 8.31445 8.63185 8.38281 8.63185 8.4707V11.9424C8.63185 12.0303 8.70021 12.0986 8.7881 12.0986H9.34474C9.43263 12.0986 9.50099 12.0303 9.50099 11.9424V8.4707C9.50099 8.38769 9.43263 8.31445 9.34474 8.31445ZM8.00196 11.2246H6.48341V8.4707C6.48341 8.38281 6.41505 8.31445 6.32716 8.31445H5.77052C5.68263 8.31445 5.61427 8.38281 5.61427 8.4707V11.9424C5.61427 11.9863 5.62892 12.0205 5.65821 12.0498C5.68751 12.0742 5.72169 12.0937 5.76564 12.0937H7.99708C8.08497 12.0937 8.15333 12.0254 8.15333 11.9375V11.3809C8.15333 11.2978 8.08497 11.2246 8.00196 11.2246ZM16.2783 8.31445H14.0469C13.9639 8.31445 13.8906 8.38281 13.8906 8.4707V11.9424C13.8906 12.0254 13.959 12.0986 14.0469 12.0986H16.2783C16.3662 12.0986 16.4346 12.0303 16.4346 11.9424V11.3857C16.4346 11.2978 16.3662 11.2295 16.2783 11.2295H14.7598V10.6435H16.2783C16.3662 10.6435 16.4346 10.5752 16.4346 10.4873V9.92578C16.4346 9.83789 16.3662 9.76953 16.2783 9.76953H14.7598V9.18359H16.2783C16.3662 9.18359 16.4346 9.11523 16.4346 9.02734V8.4707C16.4297 8.38769 16.3613 8.31445 16.2783 8.31445ZM21.9375 4.05175V17.9824C21.9326 20.1699 20.1406 21.9424 17.9483 21.9375H4.01759C1.83009 21.9326 0.0576273 20.1357 0.0625101 17.9482V4.01757C0.0673929 1.83007 1.86427 0.057612 4.05177 0.0624948H17.9824C20.1699 0.0673776 21.9424 1.85937 21.9375 4.05175ZM18.9297 10.0381C18.9297 6.47363 15.3555 3.57324 10.9658 3.57324C6.57618 3.57324 3.00196 6.47363 3.00196 10.0381C3.00196 13.2314 5.83399 15.9072 9.66212 16.415C10.5947 16.6152 10.4873 16.957 10.2774 18.2119C10.2432 18.4121 10.1162 18.998 10.9658 18.6416C11.8154 18.2852 15.5508 15.9414 17.2256 14.0176C18.3779 12.748 18.9297 11.4639 18.9297 10.0381Z" fill="#DF124C"/>
</svg>
