<svg width="22" height="22" viewBox="0 0 22 22" fill="none" xmlns="http://www.w3.org/2000/svg">
<path d="M20.375 0.0625H1.62012C0.760742 0.0625 0.0625 0.770508 0.0625 1.63965V20.3604C0.0625 21.2295 0.760742 21.9375 1.62012 21.9375H20.375C21.2344 21.9375 21.9375 21.2295 21.9375 20.3604V1.63965C21.9375 0.770508 21.2344 0.0625 20.375 0.0625ZM6.67383 18.8125H3.43164V8.37305H6.67871V18.8125H6.67383ZM5.05273 6.94727C4.0127 6.94727 3.17285 6.10254 3.17285 5.06738C3.17285 4.03223 4.0127 3.1875 5.05273 3.1875C6.08789 3.1875 6.93262 4.03223 6.93262 5.06738C6.93262 6.10742 6.09277 6.94727 5.05273 6.94727ZM18.8271 18.8125H15.585V13.7344C15.585 12.5234 15.5605 10.9658 13.9004 10.9658C12.2109 10.9658 11.9521 12.2842 11.9521 13.6465V18.8125H8.70996V8.37305H11.8203V9.79883H11.8643C12.2988 8.97852 13.3584 8.11426 14.9355 8.11426C18.2168 8.11426 18.8271 10.2773 18.8271 13.0898V18.8125Z" fill="#DF124C"/>
</svg>
