<?xml version="1.0" encoding="utf-8"?>
<svg version="1.1" id="圖層_1" xmlns="http://www.w3.org/2000/svg" xmlns:xlink="http://www.w3.org/1999/xlink" x="0px" y="0px"
	 viewBox="0 0 22 22" style="enable-background:new 0 0 22 22;" xml:space="preserve">
<style type="text/css">
	.st0{fill:#DF124C;}
</style>
<path class="st0" d="M18,0.1H4.1c-2.2,0-4,1.8-4,4v13.9c0,2.2,1.8,4,4,4h13.9c2.2,0,4-1.8,4-4V4.1C21.9,1.9,20.2,0.1,18,0.1z
	 M18.7,14.9c0,1.1-0.9,1.9-1.9,1.9H5.2c-1.1,0-1.9-0.9-1.9-1.9V8.6l6.6,4.9c0.7,0.5,1.6,0.5,2.3,0l6.6-4.9V14.9z M18.2,7.8l-6.6,4.9
	c-0.3,0.3-0.8,0.3-1.2,0L3.8,7.8C3.5,7.5,3.3,7.1,3.3,6.6c0-0.8,0.6-1.5,1.5-1.5h12.6c0.8,0,1.5,0.6,1.5,1.5
	C18.7,7.1,18.5,7.5,18.2,7.8z"/>
</svg>
